<svg width="728" height="430" viewBox="0 0 728 430" fill="none" xmlns="http://www.w3.org/2000/svg">
<path d="M308.4 269.4L213 55.2L117 269.4H308.4ZM191.4 -2.57492e-05H235.8L427.2 423H376.2L327 312H98.3996L48.5996 423H-0.000390142L191.4 -2.57492e-05ZM579.623 392.4C594.023 392.4 607.423 390.4 619.823 386.4C632.223 382.4 643.023 376.8 652.223 369.6C661.823 362 669.223 353.2 674.423 343.2C680.023 332.8 682.823 321.4 682.823 309V280.2C671.223 277 658.023 274 643.223 271.2C628.423 268.4 611.423 267 592.223 267C563.423 267 541.023 272.8 525.023 284.4C509.423 295.6 501.623 310.6 501.623 329.4V330.6C501.623 340.2 503.623 349 507.623 357C512.023 364.6 517.823 371 525.023 376.2C532.223 381.4 540.423 385.4 549.623 388.2C559.223 391 569.223 392.4 579.623 392.4ZM570.623 429.6C556.223 429.6 542.023 427.6 528.023 423.6C514.023 419.6 501.623 413.6 490.823 405.6C480.023 397.2 471.223 387 464.423 375C458.023 363 454.823 349 454.823 333V331.8C454.823 315 458.023 300.4 464.423 288C470.823 275.2 479.823 264.6 491.423 256.2C503.423 247.8 517.423 241.4 533.423 237C549.823 232.6 567.823 230.4 587.423 230.4C607.423 230.4 624.623 231.6 639.023 234C653.823 236.4 668.223 239.6 682.223 243.6V234C682.223 206.4 674.223 185.6 658.223 171.6C642.223 157.2 619.623 150 590.423 150C572.023 150 555.223 152 540.023 156C525.223 160 510.623 165.4 496.223 172.2L482.423 134.4C499.623 126.4 517.023 120 534.623 115.2C552.223 110.4 572.423 108 595.223 108C639.223 108 672.623 119.4 695.423 142.2C717.023 163.8 727.823 194.2 727.823 233.4V423H682.223V376.8C671.423 390.8 656.823 403.2 638.423 414C620.423 424.4 597.823 429.6 570.623 429.6Z" fill="url(#paint0_linear_3918_2610)"/>
<defs>
<linearGradient id="paint0_linear_3918_2610" x1="375.6" y1="-168" x2="375.6" y2="672" gradientUnits="userSpaceOnUse">
<stop stop-color="white"/>
<stop offset="1" stop-color="white" stop-opacity="0.6"/>
</linearGradient>
</defs>
</svg>
